<?xml version="1.0" encoding="iso-8859-1"?>
<!-- Uploaded to: SVG Repo, www.svgrepo.com, Generator: SVG Repo Mixer Tools -->
<svg version="1.1" id="Layer_1" xmlns="http://www.w3.org/2000/svg" xmlns:xlink="http://www.w3.org/1999/xlink" 
	 viewBox="0 0 488 488" xml:space="preserve">
<g>
	<path style="fill:#875426;" d="M408,332c-13.6,0-24,10.4-24,24s10.4,24,24,24s24-10.4,24-24S421.6,332,408,332z M448,356
		c0,22.4-17.6,40-40,40s-40-17.6-40-40s17.6-40,40-40S448,333.6,448,356z"/>
	<path style="fill:#875426;" d="M160,356c0-13.6-11.2-24-24-24s-24,10.4-24,24s11.2,24,24,24S160,369.6,160,356z M136,316
		c22.4,0,40,17.6,40,40s-17.6,40-40,40s-40-17.6-40-40S113.6,316,136,316z"/>
</g>
<path style="fill:#FF7D00;" d="M472,283.2V340h-10.4c-7.2-23.2-28-40-53.6-40s-46.4,16.8-53.6,40H328v-32v-32h72h24h40.8
	C468.8,276,472,279.2,472,283.2z"/>
<path style="fill:#42210B;" d="M400,356c0,4,4,8,8,8s8-4,8-8s-4-8-8-8S400,352,400,356z M408,380c-13.6,0-24-10.4-24-24
	s10.4-24,24-24s24,10.4,24,24S421.6,380,408,380z"/>
<polygon style="fill:#6CD3D8;" points="380.8,204 390.4,260 328,260 328,204 "/>
<g>
	<path style="fill:#FF7D00;" d="M328,180h73.6l13.6,80h-8L396,194.4c-0.8-4-4-6.4-8-6.4h-60V180z"/>
	<rect x="264" y="228" style="fill:#FF7D00;" width="48" height="8"/>
	<polygon style="fill:#FF7D00;" points="200,228 200,236 40,236 40.8,228 	"/>
</g>
<circle style="fill:#EE5656;" cx="164" cy="136" r="4"/>
<g>
	<path style="fill:#42210B;" d="M164,116c11.2,0,20,8.8,20,20s-8.8,20-20,20s-20-8.8-20-20S152.8,116,164,116z M168,136
		c0-2.4-1.6-4-4-4s-4,1.6-4,4s1.6,4,4,4S168,138.4,168,136z"/>
	<path style="fill:#42210B;" d="M136,364c4,0,8-4,8-8s-4-8-8-8s-8,4-8,8S132,364,136,364z M136,332c12.8,0,24,10.4,24,24
		s-11.2,24-24,24s-24-10.4-24-24S123.2,332,136,332z"/>
</g>
<circle style="fill:#EE5656;" cx="96" cy="132" r="16"/>
<path style="fill:#42210B;" d="M64,132c0-17.6,14.4-32,32-32s32,14.4,32,32s-14.4,32-32,32S64,149.6,64,132z M112,132
	c0-8.8-7.2-16-16-16s-16,7.2-16,16s7.2,16,16,16S112,140.8,112,132z"/>
<polygon style="fill:#EE5656;" points="37.6,108 34.4,132 24,132 24,108 "/>
<path style="fill:#FFF8EF;" d="M96,100c-17.6,0-32,14.4-32,32s14.4,32,32,32s32-14.4,32-32S113.6,100,96,100z M312,212h-56
	c-4,0-8,4-8,8v24c0,4,4,8,8,8h56v16v32h-72h-24v16h24h72v16H186.4c-8.8-19.2-28-32-50.4-32s-41.6,12.8-50.4,32H16v-16h8h40h24v-16
	H64H32.8l5.6-48H208c4,0,8-4,8-8v-24c0-4-4-8-8-8H42.4L55.2,92H376v40h-56c-4,0-8,4-8,8v32v24V212z M164,116c-11.2,0-20,8.8-20,20
	s8.8,20,20,20s20-8.8,20-20S175.2,116,164,116z"/>
<path style="fill:#42210B;" d="M34.4,132l2.4-24H24v24H34.4z M40,236h160v-8H40.8L40,236z M388,188c4,0,7.2,2.4,8,6.4l11.2,65.6h8
	l-13.6-80H328v8H388z M328,204v56h62.4l-9.6-56H328z M264,236h48v-8h-48V236z M408,316c-22.4,0-40,17.6-40,40s17.6,40,40,40
	s40-17.6,40-40S430.4,316,408,316z M136,316c-22.4,0-40,17.6-40,40s17.6,40,40,40s40-17.6,40-40S158.4,316,136,316z M472,340v-56.8
	c0-4-3.2-7.2-7.2-7.2H424h-24h-72v32v32h26.4c7.2-23.2,28-40,53.6-40s46.4,16.8,53.6,40H472z M312,348H191.2c0,2.4,0.8,5.6,0.8,8
	c0,31.2-24.8,56-56,56s-56-24.8-56-56c0-2.4,0-5.6,0.8-8H8c-4,0-8-4-8-8v-32c0-4,4-8,8-8h8.8l16-152H16c-4,0-8-4-8-8v-40
	c0-4,4-8,8-8h23.2l0.8-8.8c0-4,4-7.2,8-7.2h336c4,0,8,4,8,8v56c0,4-4,8-8,8h-56v16h80c4,0,7.2,3.2,8,6.4l14.4,89.6h34.4
	c12.8,0,23.2,10.4,23.2,23.2V348c0,4-4,8-8,8h-16c0,31.2-24.8,56-56,56s-56-24.8-56-56h-32C316,356,312,352,312,348z M312,212v-16
	v-24v-32c0-4,4-8,8-8h56V92H55.2L42.4,212H208c4,0,8,4,8,8v24c0,4-4,8-8,8H38.4l-5.6,48H64h24v16H64H24h-8v16h69.6
	c8.8-19.2,28-32,50.4-32s41.6,12.8,50.4,32H312v-16h-72h-24v-16h24h72v-32v-16h-56c-4,0-8-4-8-8v-24c0-4,4-8,8-8H312z"/>
<g>
	<path style="fill:#FF7D00;" d="M96.8,316H88H64H24h-8v16h69.6C88,325.6,92,320.8,96.8,316z"/>
	<path style="fill:#FF7D00;" d="M216,316h-40.8c4.8,4.8,8.8,9.6,12,16H312v-16h-72H216z"/>
</g>
<g>
	<polygon style="fill:#E0CBB5;" points="34.4,289.6 40.8,252 38.4,252 	"/>
	<path style="fill:#E0CBB5;" d="M55.2,92L42.4,212h6.4L64,132c0-17.6,14.4-32,32-32c15.2,0,27.2,10.4,31.2,24l24-3.2
		c3.2-3.2,8-4.8,12.8-4.8c3.2,0,6.4,0.8,8.8,2.4L376,92H55.2z"/>
</g>
<path style="fill:#1D9AAE;" d="M376,204l-28.8,5.6c-6.4,1.6-12,6.4-12.8,13.6L328,260v-56H376z"/>
<path style="fill:#FF6600;" d="M404,276h-4h-72v32v32l8.8-20.8c9.6-21.6,29.6-37.6,52.8-40.8L404,276z"/>
</svg>