<svg aria-hidden="true" style="position: absolute; width: 0; height: 0; overflow: hidden;" version="1.1" xmlns="http://www.w3.org/2000/svg" xmlns:xlink="http://www.w3.org/1999/xlink">
<defs>
<symbol id="grid4x4" viewBox="0 0 32 32">
<path d="M2 5c0-0.796 0.316-1.559 0.879-2.121s1.326-0.879 2.121-0.879h6c0.796 0 1.559 0.316 2.121 0.879s0.879 1.326 0.879 2.121v6c0 0.796-0.316 1.559-0.879 2.121s-1.326 0.879-2.121 0.879h-6c-0.796 0-1.559-0.316-2.121-0.879s-0.879-1.326-0.879-2.121v-6zM5 4c-0.265 0-0.52 0.105-0.707 0.293s-0.293 0.442-0.293 0.707v6c0 0.265 0.105 0.52 0.293 0.707s0.442 0.293 0.707 0.293h6c0.265 0 0.52-0.105 0.707-0.293s0.293-0.442 0.293-0.707v-6c0-0.265-0.105-0.52-0.293-0.707s-0.442-0.293-0.707-0.293h-6zM18 5c0-0.796 0.316-1.559 0.879-2.121s1.326-0.879 2.121-0.879h6c0.796 0 1.559 0.316 2.121 0.879s0.879 1.326 0.879 2.121v6c0 0.796-0.316 1.559-0.879 2.121s-1.326 0.879-2.121 0.879h-6c-0.796 0-1.559-0.316-2.121-0.879s-0.879-1.326-0.879-2.121v-6zM21 4c-0.265 0-0.52 0.105-0.707 0.293s-0.293 0.442-0.293 0.707v6c0 0.265 0.105 0.52 0.293 0.707s0.442 0.293 0.707 0.293h6c0.265 0 0.52-0.105 0.707-0.293s0.293-0.442 0.293-0.707v-6c0-0.265-0.105-0.52-0.293-0.707s-0.442-0.293-0.707-0.293h-6zM2 21c0-0.796 0.316-1.559 0.879-2.121s1.326-0.879 2.121-0.879h6c0.796 0 1.559 0.316 2.121 0.879s0.879 1.326 0.879 2.121v6c0 0.796-0.316 1.559-0.879 2.121s-1.326 0.879-2.121 0.879h-6c-0.796 0-1.559-0.316-2.121-0.879s-0.879-1.326-0.879-2.121v-6zM5 20c-0.265 0-0.52 0.105-0.707 0.293s-0.293 0.442-0.293 0.707v6c0 0.265 0.105 0.52 0.293 0.707s0.442 0.293 0.707 0.293h6c0.265 0 0.52-0.105 0.707-0.293s0.293-0.442 0.293-0.707v-6c0-0.265-0.105-0.52-0.293-0.707s-0.442-0.293-0.707-0.293h-6zM18 21c0-0.796 0.316-1.559 0.879-2.121s1.326-0.879 2.121-0.879h6c0.796 0 1.559 0.316 2.121 0.879s0.879 1.326 0.879 2.121v6c0 0.796-0.316 1.559-0.879 2.121s-1.326 0.879-2.121 0.879h-6c-0.796 0-1.559-0.316-2.121-0.879s-0.879-1.326-0.879-2.121v-6zM21 20c-0.265 0-0.52 0.105-0.707 0.293s-0.293 0.442-0.293 0.707v6c0 0.265 0.105 0.52 0.293 0.707s0.442 0.293 0.707 0.293h6c0.265 0 0.52-0.105 0.707-0.293s0.293-0.442 0.293-0.707v-6c0-0.265-0.105-0.52-0.293-0.707s-0.442-0.293-0.707-0.293h-6z"></path>
</symbol>
<symbol id="bi_grid1x2" viewBox="0 0 32 32">
<path d="M12 2h-10v28h10v-28zM30 2h-10v10h10v-10zM30 20v10h-10v-10h10zM0 2c0-0.53 0.211-1.039 0.586-1.414s0.884-0.586 1.414-0.586h10c0.53 0 1.039 0.211 1.414 0.586s0.586 0.884 0.586 1.414v28c0 0.53-0.211 1.039-0.586 1.414s-0.884 0.586-1.414 0.586h-10c-0.53 0-1.039-0.211-1.414-0.586s-0.586-0.884-0.586-1.414v-28zM18 2c0-0.53 0.211-1.039 0.586-1.414s0.884-0.586 1.414-0.586h10c0.53 0 1.039 0.211 1.414 0.586s0.586 0.884 0.586 1.414v10c0 0.53-0.211 1.039-0.586 1.414s-0.884 0.586-1.414 0.586h-10c-0.53 0-1.039-0.211-1.414-0.586s-0.586-0.884-0.586-1.414v-10zM20 18c-0.53 0-1.039 0.211-1.414 0.586s-0.586 0.884-0.586 1.414v10c0 0.53 0.211 1.039 0.586 1.414s0.884 0.586 1.414 0.586h10c0.53 0 1.039-0.211 1.414-0.586s0.586-0.884 0.586-1.414v-10c0-0.53-0.211-1.039-0.586-1.414s-0.884-0.586-1.414-0.586h-10z"></path>
</symbol>
<symbol id="bi_grid3x3" viewBox="0 0 32 32">
<path d="M8 4v4h-4v-4h4zM10 28v-4c0-0.53-0.211-1.039-0.586-1.414s-0.884-0.586-1.414-0.586h-4c-0.53 0-1.039 0.211-1.414 0.586s-0.586 0.884-0.586 1.414v4c0 0.53 0.211 1.039 0.586 1.414s0.884 0.586 1.414 0.586h4c0.53 0 1.039-0.211 1.414-0.586s0.586-0.884 0.586-1.414zM10 18v-4c0-0.53-0.211-1.039-0.586-1.414s-0.884-0.586-1.414-0.586h-4c-0.53 0-1.039 0.211-1.414 0.586s-0.586 0.884-0.586 1.414v4c0 0.53 0.211 1.039 0.586 1.414s0.884 0.586 1.414 0.586h4c0.53 0 1.039-0.211 1.414-0.586s0.586-0.884 0.586-1.414zM10 8v-4c0-0.53-0.211-1.039-0.586-1.414s-0.884-0.586-1.414-0.586h-4c-0.53 0-1.039 0.211-1.414 0.586s-0.586 0.884-0.586 1.414v4c0 0.53 0.211 1.039 0.586 1.414s0.884 0.586 1.414 0.586h4c0.53 0 1.039-0.211 1.414-0.586s0.586-0.884 0.586-1.414zM20 28v-4c0-0.53-0.211-1.039-0.586-1.414s-0.884-0.586-1.414-0.586h-4c-0.53 0-1.039 0.211-1.414 0.586s-0.586 0.884-0.586 1.414v4c0 0.53 0.211 1.039 0.586 1.414s0.884 0.586 1.414 0.586h4c0.53 0 1.039-0.211 1.414-0.586s0.586-0.884 0.586-1.414zM20 18v-4c0-0.53-0.211-1.039-0.586-1.414s-0.884-0.586-1.414-0.586h-4c-0.53 0-1.039 0.211-1.414 0.586s-0.586 0.884-0.586 1.414v4c0 0.53 0.211 1.039 0.586 1.414s0.884 0.586 1.414 0.586h4c0.53 0 1.039-0.211 1.414-0.586s0.586-0.884 0.586-1.414zM20 8v-4c0-0.53-0.211-1.039-0.586-1.414s-0.884-0.586-1.414-0.586h-4c-0.53 0-1.039 0.211-1.414 0.586s-0.586 0.884-0.586 1.414v4c0 0.53 0.211 1.039 0.586 1.414s0.884 0.586 1.414 0.586h4c0.53 0 1.039-0.211 1.414-0.586s0.586-0.884 0.586-1.414zM18 4v4h-4v-4h4zM28 4v4h-4v-4h4zM8 14v4h-4v-4h4zM18 14v4h-4v-4h4zM28 14h-4v4h4v-4zM8 24v4h-4v-4h4zM18 24v4h-4v-4h4zM28 24v4h-4v-4h4zM24 2c-0.53 0-1.039 0.211-1.414 0.586s-0.586 0.884-0.586 1.414v4c0 0.53 0.211 1.039 0.586 1.414s0.884 0.586 1.414 0.586h4c0.53 0 1.039-0.211 1.414-0.586s0.586-0.884 0.586-1.414v-4c0-0.53-0.211-1.039-0.586-1.414s-0.884-0.586-1.414-0.586h-4zM22 14c0-0.53 0.211-1.039 0.586-1.414s0.884-0.586 1.414-0.586h4c0.53 0 1.039 0.211 1.414 0.586s0.586 0.884 0.586 1.414v4c0 0.53-0.211 1.039-0.586 1.414s-0.884 0.586-1.414 0.586h-4c-0.53 0-1.039-0.211-1.414-0.586s-0.586-0.884-0.586-1.414v-4zM24 22c-0.53 0-1.039 0.211-1.414 0.586s-0.586 0.884-0.586 1.414v4c0 0.53 0.211 1.039 0.586 1.414s0.884 0.586 1.414 0.586h4c0.53 0 1.039-0.211 1.414-0.586s0.586-0.884 0.586-1.414v-4c0-0.53-0.211-1.039-0.586-1.414s-0.884-0.586-1.414-0.586h-4z"></path>
</symbol>
<symbol id="radio" viewBox="0 0 32 32">
<path d="M0 13.25v17h32v-17h-32zM31 29.25v0h-30v-15h30v15z"></path>
<path d="M3.321 27.75h10.357c0.453 0 0.821-0.368 0.821-0.822v-10.357c0-0.453-0.368-0.822-0.821-0.822h-10.357c-0.453 0-0.821 0.368-0.821 0.822v10.357c0 0.453 0.368 0.822 0.821 0.822zM3.5 16.75h10v10h-10v-10z"></path>
<path d="M27.5 19.75c1.103 0 2-0.897 2-2s-0.897-2-2-2c-1.103 0-2 0.897-2 2s0.897 2 2 2zM27.5 16.75c0.551 0 1 0.449 1 1s-0.449 1-1 1-1-0.449-1-1c0-0.551 0.449-1 1-1z"></path>
<path d="M22 19.75c1.103 0 2-0.897 2-2s-0.897-2-2-2c-1.103 0-2 0.897-2 2s0.897 2 2 2zM22 16.75c0.551 0 1 0.449 1 1s-0.449 1-1 1-1-0.449-1-1c0-0.551 0.449-1 1-1z"></path>
<path d="M21.431 20.271h1.036v0.972h-1.036v-0.972z"></path>
<path d="M26.937 20.271h1.036v0.972h-1.036v-0.972z"></path>
<path d="M29.5 22.75h-13.5v5.5h13.5v-5.5zM28.5 27.25h-1.563v-2.509h-1.036v2.509h-1.36v-0.954h-1.036v0.954h-1.619v-2.509h-1.036v2.509h-1.231v-0.954h-1.036v0.954h-1.581v-3.5h11.5v3.5z"></path>
<path d="M29.528 12.822v-1.036h0.972v-1.036h-2.98v1.036h0.972v1.036z"></path>
<path d="M13.296 12.822h2.629v-1.036h-2.221l-7.888-7.361-0.707 0.758z"></path>
<path d="M4 4.75c0.827 0 1.5-0.673 1.5-1.5s-0.673-1.5-1.5-1.5-1.5 0.673-1.5 1.5c0 0.827 0.673 1.5 1.5 1.5zM4 2.75c0.276 0 0.5 0.224 0.5 0.5s-0.224 0.5-0.5 0.5-0.5-0.224-0.5-0.5 0.224-0.5 0.5-0.5z"></path>
<path d="M19.5 6.863h7.5c0.834 0 1.487 0.626 1.487 1.425h0.005v2.462h1.036v-6.499c0-1.354-1.087-2.375-2.528-2.375h-7.5c-1.389 0-2.518 1.119-2.518 2.494s1.13 2.494 2.518 2.494zM19.5 2.911h7.5c0.741 0 1.492 0.46 1.492 1.339v2.040c-0.415-0.293-0.929-0.463-1.492-0.463h-7.5c-0.831 0-1.482-0.64-1.482-1.457s0.651-1.458 1.482-1.458z"></path>
<path d="M3.877 18.199h1.101v1.036h-1.101v-1.036z"></path>
<path d="M3.877 21.178h1.101v1.036h-1.101v-1.036z"></path>
<path d="M3.877 24.158h1.101v1.036h-1.101v-1.036z"></path>
<path d="M11.974 18.198v-0.972h-1.036v0.972l-1.943-0v-0.972h-1.036v0.972l-1.943-0v-0.972h-1.036v9.069h1.036v-1.101h1.943v1.101h1.036v-1.101h1.943v1.101h1.036v-1.101h0.972v-1.036h-0.972v-1.943h0.972v-1.036h-0.972v-1.943h0.972v-1.036l-0.972-0zM6.014 19.235h1.943v1.943h-1.943v-1.943zM6.014 24.158v-1.943h1.943v1.943h-1.943zM10.937 22.215v1.943h-1.943v-1.943h1.943zM10.937 21.178h-1.943v-1.943h1.943v1.943z"></path>
</symbol>
<symbol id="bathroom" viewBox="0 0 32 32">
<path d="M30.4 17.067h-0.533v-11.2c0-2.667-2.133-4.8-4.8-4.8-2.361 0-4.058 1.75-4.248 4.315-1.239 0.234-2.152 1.302-2.152 2.618 0 0.32 0.213 0.533 0.533 0.533h4.267c0.32 0 0.533-0.213 0.533-0.533 0-1.302-0.892-2.361-2.11-2.61 0.159-1.695 1.177-3.256 3.177-3.256 2.080 0 3.733 1.653 3.733 3.733v11.2h-16.052c-0.241-1.23-1.305-2.133-2.615-2.133-0.533-0.64-1.28-1.067-2.133-1.067-1.013 0-1.92 0.587-2.347 1.44-0.427-0.213-0.907-0.373-1.387-0.373-1.31 0-2.374 0.903-2.615 2.133h-0.052c-0.907 0-1.6 0.693-1.6 1.6s0.693 1.6 1.6 1.6h0.641l1.439 5.707c0.427 1.653 1.92 2.827 3.627 2.827h0.427l-0.693 1.387c-0.16 0.267-0.053 0.587 0.213 0.693 0.053 0.053 0.16 0.053 0.213 0.053 0.213 0 0.373-0.107 0.48-0.267l0.933-1.867h14.8l0.907 1.813c0.107 0.213 0.267 0.32 0.48 0.32 0.107 0 0.16 0 0.213-0.107 0.213-0.107 0.32-0.427 0.213-0.693l-0.668-1.336c1.651-0.059 3.079-1.212 3.495-2.77l1.453-5.76h0.628c0.907 0 1.6-0.693 1.6-1.6s-0.693-1.6-1.6-1.6zM22.88 7.467h-3.040c0.213-0.64 0.853-1.067 1.547-1.067s1.28 0.427 1.493 1.067zM4.267 16c0.48 0 0.907 0.213 1.28 0.587 0.107 0.16 0.32 0.213 0.533 0.16s0.32-0.213 0.373-0.427c0.16-0.8 0.8-1.387 1.6-1.387 0.587 0 1.12 0.267 1.387 0.8 0.107 0.213 0.373 0.32 0.587 0.267 0.053 0 0.107 0 0.16 0 0.693 0 1.28 0.427 1.493 1.067h-8.907c0.213-0.64 0.8-1.067 1.493-1.067zM27.36 25.707c-0.32 1.173-1.387 2.027-2.613 2.027h-17.387c-1.227 0-2.293-0.853-2.613-2.027l-1.387-5.44h25.28l-1.28 5.44zM30.4 19.2h-28.8c-0.32 0-0.533-0.213-0.533-0.533s0.213-0.533 0.533-0.533h28.8c0.32 0 0.533 0.213 0.533 0.533s-0.213 0.533-0.533 0.533z"></path>
<path d="M19.2 10.933c0.32 0 0.533-0.213 0.533-0.533v-0.267c0-0.32-0.213-0.533-0.533-0.533s-0.533 0.213-0.533 0.533v0.267c0 0.32 0.213 0.533 0.533 0.533z"></path>
<path d="M19.2 13.387c0.32 0 0.533-0.267 0.533-0.533v-0.587c0-0.32-0.213-0.533-0.533-0.533s-0.533 0.213-0.533 0.533v0.587c0 0.32 0.213 0.533 0.533 0.533z"></path>
<path d="M19.2 15.467c0.32 0 0.533-0.213 0.533-0.533v-0.267c0-0.32-0.213-0.533-0.533-0.533s-0.533 0.213-0.533 0.533v0.267c0 0.32 0.213 0.533 0.533 0.533z"></path>
<path d="M21.333 10.933c0.32 0 0.533-0.213 0.533-0.533v-0.267c0-0.32-0.213-0.533-0.533-0.533s-0.533 0.213-0.533 0.533v0.267c0 0.32 0.213 0.533 0.533 0.533z"></path>
<path d="M20.8 12.853c0 0.32 0.213 0.533 0.533 0.533s0.533-0.267 0.533-0.533v-0.587c0-0.32-0.213-0.533-0.533-0.533s-0.533 0.213-0.533 0.533v0.587z"></path>
<path d="M20.8 14.933c0 0.32 0.213 0.533 0.533 0.533s0.533-0.213 0.533-0.533v-0.267c0-0.32-0.213-0.533-0.533-0.533s-0.533 0.213-0.533 0.533v0.267z"></path>
<path d="M23.467 10.933c0.32 0 0.533-0.213 0.533-0.533v-0.267c0-0.32-0.213-0.533-0.533-0.533s-0.533 0.213-0.533 0.533v0.267c-0 0.32 0.213 0.533 0.533 0.533z"></path>
<path d="M22.933 12.853c0 0.32 0.213 0.533 0.533 0.533s0.533-0.267 0.533-0.533v-0.587c0-0.32-0.213-0.533-0.533-0.533s-0.533 0.213-0.533 0.533v0.587z"></path>
<path d="M22.933 14.933c0 0.32 0.213 0.533 0.533 0.533s0.533-0.213 0.533-0.533v-0.267c0-0.32-0.213-0.533-0.533-0.533s-0.533 0.213-0.533 0.533v0.267z"></path>
</symbol>
<symbol id="cup-hot" viewBox="0 0 32 32">
<path d="M1 12c-0.15 0-0.297 0.034-0.432 0.098s-0.254 0.159-0.347 0.276c-0.094 0.117-0.16 0.253-0.194 0.399s-0.035 0.297-0.003 0.443l3.304 14.868c0.247 1.11 0.865 2.104 1.752 2.816s1.991 1.1 3.128 1.1h11.584c1.138-0 2.241-0.388 3.128-1.1s1.505-1.705 1.752-2.816l0.262-1.18c1.53 0.286 3.111-0.033 4.41-0.891s2.213-2.186 2.551-3.706c0.337-1.519 0.071-3.11-0.742-4.437s-2.111-2.285-3.618-2.674l0.442-1.98c0.032-0.146 0.031-0.298-0.003-0.443s-0.1-0.282-0.194-0.399c-0.094-0.117-0.212-0.211-0.347-0.276s-0.283-0.098-0.432-0.098h-26zM26 25c-0.212 0-0.423-0.017-0.632-0.050l1.734-7.796c0.925 0.268 1.722 0.86 2.246 1.669s0.738 1.778 0.604 2.732c-0.134 0.954-0.607 1.827-1.333 2.46s-1.656 0.983-2.619 0.985zM5.28 27.65l-3.034-13.65h23.508l-3.034 13.65c-0.148 0.666-0.519 1.262-1.051 1.69s-1.195 0.66-1.877 0.66h-11.584c-0.683-0-1.345-0.233-1.877-0.66s-0.903-1.023-1.051-1.69z"></path>
<path d="M8.8 1.6l-0.006 0.008-0.028 0.038c-0.146 0.2-0.282 0.407-0.408 0.62-0.107 0.171-0.202 0.349-0.282 0.534-0.052 0.12-0.068 0.184-0.074 0.206v0.008c0.023 0.177 0.085 0.346 0.182 0.496 0.15 0.266 0.356 0.544 0.616 0.89l0.020 0.024c0.236 0.316 0.52 0.694 0.74 1.086 0.224 0.4 0.44 0.91 0.44 1.49 0 0.376-0.13 0.736-0.238 0.988-0.116 0.268-0.251 0.527-0.404 0.776-0.157 0.262-0.326 0.517-0.506 0.764l-0.036 0.050-0.010 0.016-0.004 0.004c-0.159 0.212-0.396 0.353-0.658 0.391s-0.529-0.030-0.742-0.189-0.353-0.396-0.391-0.658c-0.038-0.263 0.030-0.529 0.189-0.742l0.006-0.008 0.028-0.038c0.146-0.2 0.282-0.407 0.408-0.62 0.107-0.171 0.202-0.349 0.282-0.534 0.052-0.12 0.068-0.184 0.074-0.206-0.021-0.179-0.083-0.352-0.18-0.504-0.186-0.31-0.392-0.608-0.618-0.89l-0.020-0.024c-0.27-0.345-0.517-0.708-0.74-1.086-0.272-0.451-0.424-0.964-0.44-1.49 0-0.376 0.13-0.736 0.238-0.988 0.118-0.276 0.268-0.548 0.404-0.776 0.159-0.261 0.328-0.516 0.506-0.764l0.050-0.070c0.159-0.212 0.396-0.353 0.658-0.391s0.529 0.030 0.742 0.189c0.212 0.159 0.353 0.396 0.391 0.658s-0.030 0.529-0.189 0.742zM14.8 1.6l-0.006 0.008-0.028 0.038c-0.146 0.2-0.282 0.407-0.408 0.62-0.107 0.171-0.202 0.349-0.282 0.534-0.052 0.12-0.068 0.184-0.074 0.206v0.008c0.023 0.177 0.085 0.346 0.182 0.496 0.15 0.266 0.356 0.544 0.616 0.89l0.020 0.024c0.236 0.316 0.52 0.694 0.74 1.086 0.224 0.4 0.44 0.91 0.44 1.49 0 0.376-0.13 0.736-0.238 0.988-0.116 0.268-0.251 0.527-0.404 0.776-0.157 0.262-0.326 0.517-0.506 0.764l-0.036 0.050-0.010 0.016-0.004 0.004c-0.159 0.212-0.396 0.353-0.658 0.391s-0.529-0.030-0.742-0.189-0.353-0.396-0.391-0.658c-0.038-0.263 0.030-0.529 0.189-0.742l0.006-0.008 0.028-0.038c0.146-0.2 0.282-0.407 0.408-0.62 0.107-0.171 0.202-0.349 0.282-0.534 0.052-0.12 0.068-0.184 0.074-0.206-0.021-0.179-0.083-0.352-0.18-0.504-0.186-0.31-0.392-0.608-0.618-0.89l-0.020-0.024c-0.27-0.345-0.517-0.708-0.74-1.086-0.272-0.451-0.424-0.964-0.44-1.49 0-0.376 0.13-0.736 0.238-0.988 0.118-0.276 0.268-0.548 0.404-0.776 0.159-0.261 0.328-0.516 0.506-0.764l0.050-0.070c0.159-0.212 0.396-0.353 0.658-0.391s0.529 0.030 0.742 0.189 0.353 0.396 0.391 0.658c0.038 0.263-0.030 0.529-0.189 0.742zM20.8 1.6l-0.006 0.008-0.028 0.038c-0.145 0.2-0.282 0.407-0.408 0.62-0.107 0.171-0.202 0.349-0.282 0.534-0.052 0.12-0.068 0.184-0.074 0.206v0.008c0.023 0.177 0.085 0.346 0.182 0.496 0.15 0.266 0.356 0.544 0.616 0.89l0.020 0.024c0.236 0.316 0.52 0.694 0.74 1.086 0.224 0.4 0.44 0.91 0.44 1.49 0 0.376-0.13 0.736-0.238 0.988-0.116 0.268-0.251 0.527-0.404 0.776-0.156 0.262-0.324 0.517-0.504 0.764l-0.038 0.050-0.010 0.016-0.004 0.004c-0.159 0.212-0.396 0.353-0.658 0.391s-0.529-0.030-0.742-0.189-0.353-0.396-0.391-0.658c-0.038-0.263 0.030-0.529 0.189-0.742l0.006-0.008 0.028-0.038c0.145-0.2 0.282-0.407 0.408-0.62 0.107-0.171 0.202-0.349 0.282-0.534 0.052-0.12 0.068-0.184 0.074-0.206-0.021-0.179-0.083-0.352-0.18-0.504-0.186-0.31-0.392-0.608-0.618-0.89l-0.020-0.024c-0.27-0.345-0.517-0.708-0.74-1.086-0.272-0.451-0.424-0.964-0.44-1.49 0-0.376 0.13-0.736 0.238-0.988 0.118-0.276 0.268-0.548 0.404-0.776 0.159-0.261 0.328-0.516 0.506-0.764l0.050-0.070c0.159-0.212 0.396-0.353 0.658-0.391s0.529 0.030 0.742 0.189 0.353 0.396 0.391 0.658c0.038 0.263-0.030 0.529-0.189 0.742z"></path>
</symbol>
<symbol id="diagram" viewBox="0 0 32 32">
<path d="M12 7c0-0.796 0.316-1.559 0.879-2.121s1.326-0.879 2.121-0.879h2c0.796 0 1.559 0.316 2.121 0.879s0.879 1.326 0.879 2.121v2c0 0.796-0.316 1.559-0.879 2.121s-1.326 0.879-2.121 0.879v2h11c0.265 0 0.52 0.105 0.707 0.293s0.293 0.442 0.293 0.707v2c0 0.265-0.105 0.52-0.293 0.707s-0.442 0.293-0.707 0.293c-0.265 0-0.52-0.105-0.707-0.293s-0.293-0.442-0.293-0.707v-1h-10v1c0 0.265-0.105 0.52-0.293 0.707s-0.442 0.293-0.707 0.293c-0.265 0-0.52-0.105-0.707-0.293s-0.293-0.442-0.293-0.707v-1h-10v1c0 0.265-0.105 0.52-0.293 0.707s-0.442 0.293-0.707 0.293c-0.265 0-0.52-0.105-0.707-0.293s-0.293-0.442-0.293-0.707v-2c0-0.265 0.105-0.52 0.293-0.707s0.442-0.293 0.707-0.293h11v-2c-0.796 0-1.559-0.316-2.121-0.879s-0.879-1.326-0.879-2.121v-2zM17 10c0.265 0 0.52-0.105 0.707-0.293s0.293-0.442 0.293-0.707v-2c0-0.265-0.105-0.52-0.293-0.707s-0.442-0.293-0.707-0.293h-2c-0.265 0-0.52 0.105-0.707 0.293s-0.293 0.442-0.293 0.707v2c0 0.265 0.105 0.52 0.293 0.707s0.442 0.293 0.707 0.293h2zM0 23c0-0.796 0.316-1.559 0.879-2.121s1.326-0.879 2.121-0.879h2c0.796 0 1.559 0.316 2.121 0.879s0.879 1.326 0.879 2.121v2c0 0.796-0.316 1.559-0.879 2.121s-1.326 0.879-2.121 0.879h-2c-0.796 0-1.559-0.316-2.121-0.879s-0.879-1.326-0.879-2.121v-2zM3 22c-0.265 0-0.52 0.105-0.707 0.293s-0.293 0.442-0.293 0.707v2c0 0.265 0.105 0.52 0.293 0.707s0.442 0.293 0.707 0.293h2c0.265 0 0.52-0.105 0.707-0.293s0.293-0.442 0.293-0.707v-2c0-0.265-0.105-0.52-0.293-0.707s-0.442-0.293-0.707-0.293h-2zM12 23c0-0.796 0.316-1.559 0.879-2.121s1.326-0.879 2.121-0.879h2c0.796 0 1.559 0.316 2.121 0.879s0.879 1.326 0.879 2.121v2c0 0.796-0.316 1.559-0.879 2.121s-1.326 0.879-2.121 0.879h-2c-0.796 0-1.559-0.316-2.121-0.879s-0.879-1.326-0.879-2.121v-2zM15 22c-0.265 0-0.52 0.105-0.707 0.293s-0.293 0.442-0.293 0.707v2c0 0.265 0.105 0.52 0.293 0.707s0.442 0.293 0.707 0.293h2c0.265 0 0.52-0.105 0.707-0.293s0.293-0.442 0.293-0.707v-2c0-0.265-0.105-0.52-0.293-0.707s-0.442-0.293-0.707-0.293h-2zM24 23c0-0.796 0.316-1.559 0.879-2.121s1.326-0.879 2.121-0.879h2c0.796 0 1.559 0.316 2.121 0.879s0.879 1.326 0.879 2.121v2c0 0.796-0.316 1.559-0.879 2.121s-1.326 0.879-2.121 0.879h-2c-0.796 0-1.559-0.316-2.121-0.879s-0.879-1.326-0.879-2.121v-2zM27 22c-0.265 0-0.52 0.105-0.707 0.293s-0.293 0.442-0.293 0.707v2c0 0.265 0.105 0.52 0.293 0.707s0.442 0.293 0.707 0.293h2c0.265 0 0.52-0.105 0.707-0.293s0.293-0.442 0.293-0.707v-2c0-0.265-0.105-0.52-0.293-0.707s-0.442-0.293-0.707-0.293h-2z"></path>
</symbol>
<symbol id="love" viewBox="0 0 32 32">
<path d="M16 13.139l-1.788-3.578c-0.444-0.886-1.214-2.16-2.304-3.19-1.072-1.014-2.356-1.704-3.908-1.704-3.352 0-6 2.652-6 5.84 0 2.422 1.108 4.132 3.736 6.74 0.674 0.668 1.442 1.39 2.292 2.186 2.216 2.080 4.972 4.668 7.972 8.128 3-3.46 5.756-6.048 7.972-8.128 0.85-0.796 1.62-1.52 2.292-2.186 2.628-2.608 3.736-4.318 3.736-6.74 0-3.188-2.648-5.84-6-5.84-1.554 0-2.836 0.69-3.908 1.704-1.090 1.030-1.86 2.304-2.304 3.19l-1.788 3.578zM16.784 29.723c-0.096 0.114-0.216 0.206-0.352 0.269s-0.283 0.095-0.432 0.095-0.297-0.033-0.432-0.095c-0.135-0.063-0.255-0.155-0.352-0.269-3.202-3.804-6.1-6.524-8.486-8.762-4.13-3.878-6.73-6.316-6.73-10.454 0-4.33 3.58-7.84 8-7.84 3.2 0 5.438 2.1 6.808 4.016 0.52 0.73 0.916 1.432 1.192 1.984 0.346-0.691 0.745-1.354 1.192-1.984 1.37-1.918 3.608-4.016 6.808-4.016 4.42 0 8 3.51 8 7.84 0 4.138-2.6 6.576-6.73 10.454-2.386 2.24-5.284 4.962-8.486 8.762z"></path>
</symbol>
<symbol id="people" viewBox="0 0 32 32">
<path d="M30 28c0 0 2 0 2-2s-2-8-10-8c-8 0-10 6-10 8s2 2 2 2h16zM14.044 26l-0.044-0.008c0.002-0.528 0.334-2.060 1.52-3.44 1.104-1.294 3.044-2.552 6.48-2.552 3.434 0 5.374 1.26 6.48 2.552 1.186 1.38 1.516 2.914 1.52 3.44l-0.016 0.004-0.028 0.004h-15.912zM22 14c1.061 0 2.078-0.421 2.828-1.172s1.172-1.768 1.172-2.828-0.421-2.078-1.172-2.828c-0.75-0.75-1.768-1.172-2.828-1.172s-2.078 0.421-2.828 1.172c-0.75 0.75-1.172 1.768-1.172 2.828s0.421 2.078 1.172 2.828c0.75 0.75 1.768 1.172 2.828 1.172zM28 10c0 0.788-0.155 1.568-0.457 2.296s-0.743 1.389-1.3 1.947c-0.557 0.557-1.219 0.999-1.947 1.301s-1.508 0.457-2.296 0.457-1.568-0.155-2.296-0.457c-0.728-0.302-1.389-0.744-1.947-1.301s-0.999-1.219-1.3-1.947c-0.302-0.728-0.457-1.508-0.457-2.296 0-1.591 0.632-3.117 1.757-4.243s2.651-1.757 4.243-1.757 3.117 0.632 4.243 1.757c1.125 1.125 1.757 2.651 1.757 4.243zM13.872 18.56c-0.8-0.25-1.625-0.416-2.46-0.494-0.469-0.046-0.941-0.068-1.412-0.066-8 0-10 6-10 8 0 1.333 0.667 2 2 2h8.432c-0.296-0.624-0.444-1.309-0.432-2 0-2.020 0.754-4.084 2.18-5.808 0.486-0.588 1.052-1.138 1.692-1.632zM9.84 20c-1.183 1.779-1.822 3.864-1.84 6h-6c0-0.52 0.328-2.060 1.52-3.448 1.090-1.272 2.984-2.512 6.32-2.55v-0.002zM3 11c0-1.591 0.632-3.117 1.757-4.243s2.651-1.757 4.243-1.757c1.591 0 3.117 0.632 4.243 1.757s1.757 2.651 1.757 4.243c0 1.591-0.632 3.117-1.757 4.243s-2.651 1.757-4.243 1.757c-1.591 0-3.117-0.632-4.243-1.757s-1.757-2.651-1.757-4.243zM9 7c-1.061 0-2.078 0.421-2.828 1.172s-1.172 1.768-1.172 2.828c0 1.061 0.421 2.078 1.172 2.828s1.768 1.172 2.828 1.172c1.061 0 2.078-0.421 2.828-1.172s1.172-1.768 1.172-2.828c0-1.061-0.421-2.078-1.172-2.828s-1.768-1.172-2.828-1.172z"></path>
</symbol>
<symbol id="star" viewBox="0 0 32 32">
<path fill="#FFC531" style="fill: var(--color1, #FFC531)" d="M17.545 1.659l3.609 7.313c0.251 0.509 0.736 0.861 1.298 0.943l8.071 1.173c1.414 0.206 1.978 1.942 0.955 2.939l-5.84 5.692c-0.406 0.396-0.591 0.967-0.495 1.525l1.378 8.038c0.242 1.408-1.236 2.481-2.5 1.817l-7.218-3.795c-0.502-0.264-1.102-0.264-1.604 0l-7.218 3.795c-1.264 0.665-2.742-0.409-2.5-1.817l1.378-8.038c0.096-0.559-0.089-1.129-0.495-1.525l-5.84-5.692c-1.023-0.997-0.459-2.734 0.955-2.939l8.071-1.173c0.561-0.081 1.047-0.434 1.298-0.943l3.609-7.313c0.631-1.281 2.458-1.281 3.090 0z"></path>
</symbol>
<symbol id="starEmpty" viewBox="0 0 32 32">
<path  fill="#F2F4F7" style="fill: var(--color1, #F2F4F7)" d="M17.545 1.659l3.609 7.313c0.251 0.509 0.736 0.861 1.298 0.943l8.071 1.173c1.414 0.206 1.978 1.942 0.955 2.939l-5.84 5.692c-0.406 0.396-0.591 0.967-0.495 1.525l1.378 8.038c0.242 1.408-1.236 2.481-2.5 1.817l-7.218-3.795c-0.502-0.264-1.102-0.264-1.604 0l-7.218 3.795c-1.264 0.665-2.742-0.409-2.5-1.817l1.378-8.038c0.096-0.559-0.089-1.129-0.495-1.525l-5.84-5.692c-1.023-0.997-0.459-2.734 0.955-2.939l8.071-1.173c0.561-0.081 1.047-0.434 1.298-0.943l3.609-7.313c0.631-1.281 2.458-1.281 3.090 0z"></path>
</symbol>
<symbol id="gas" viewBox="0 0 32 32">
<path d="M16 2.9l-0.46 0.5c-0.113 0.118-2.74 2.915-2.74 5.68 0 0.875 0.365 1.82 0.96 2.54-0.678 0.070-1.315 0.168-1.94 0.3 0.328-1.012 0.235-2.217-0.24-3.14-1.305-2.533-2.738-3.808-2.8-3.86l-0.46-0.36-0.42 0.4c-0.093 0.088-2.225 2.195-1.86 5.26 0.143 1.188 0.705 2.002 0.94 2.3 0.218 0.275 0.532 0.578 0.9 0.82-0.402 0.223-0.78 0.447-1.12 0.7-0.013-0.105 0-0.213-0.020-0.32-0.202-1.027-0.792-1.922-1.58-2.4-2.127-1.29-3.328-2.112-3.34-2.12l-0.56-0.38-0.34 0.58c-0.073 0.117-1.798 2.9-0.14 5.6 0.625 1.015 1.482 1.528 1.82 1.7 0.188 0.095 0.868 0.4 1.68 0.4 0.098 0 0.205-0.010 0.3-0.020-0.063 0.277-0.1 0.552-0.1 0.84h0.020c0 2.765 5.265 5.1 11.5 5.1s11.5-2.335 11.5-5.1h0.020c0-0.288-0.038-0.563-0.1-0.84 0.095 0.010 0.203 0.020 0.3 0.020 0.813 0 1.49-0.302 1.68-0.4 0.34-0.172 1.198-0.685 1.82-1.7 1.658-2.7-0.065-5.482-0.14-5.6l-0.36-0.58-0.54 0.38c-0.012 0.008-1.212 0.83-3.34 2.12-0.788 0.477-1.378 1.373-1.58 2.4-0.020 0.107-0.008 0.215-0.020 0.32-0.34-0.252-0.718-0.477-1.12-0.7 0.367-0.242 0.683-0.545 0.9-0.82 0.235-0.297 0.797-1.113 0.94-2.3 0.363-3.065-1.77-5.173-1.86-5.26l-0.42-0.4-0.44 0.36c-0.063 0.053-1.515 1.327-2.82 3.86-0.475 0.922-0.567 2.127-0.24 3.14-0.625-0.133-1.262-0.23-1.94-0.3 0.595-0.72 0.96-1.665 0.96-2.54 0-2.765-2.63-5.563-2.74-5.68zM16 9.020c0 0 0.96 1.020 0.96 1.98 0 0.172-0.040 0.352-0.12 0.52-0.277-0.010-0.558-0.020-0.84-0.020s-0.563 0.010-0.84 0.020c-0.080-0.168-0.12-0.348-0.12-0.52 0-0.96 0.96-1.98 0.96-1.98zM8.9 9.5c0 0 0.938 1.16 1.64 2.020 0.145 0.178 0.205 0.43 0.18 0.68-0.578 0.162-1.125 0.348-1.64 0.56-0.095-0.090-0.19-0.207-0.24-0.32-0.6-1.332 0.060-2.94 0.060-2.94zM23.1 9.5c0 0 0.66 1.607 0.060 2.94-0.050 0.113-0.145 0.23-0.24 0.32-0.515-0.213-1.063-0.398-1.64-0.56-0.025-0.25 0.035-0.502 0.18-0.68 0.703-0.86 1.64-2.020 1.64-2.020zM3.080 13.14c0 0 1.343 0.652 2.34 1.14 0.205 0.1 0.357 0.305 0.44 0.54-0.383 0.393-0.69 0.82-0.92 1.26-0.253-0.010-0.505-0.088-0.68-0.24-1.103-0.96-1.18-2.7-1.18-2.7zM28.92 13.14c0 0-0.078 1.74-1.18 2.7-0.175 0.152-0.427 0.23-0.68 0.24-0.225-0.432-0.527-0.852-0.9-1.24 0.082-0.24 0.21-0.457 0.42-0.56 0.997-0.488 2.34-1.14 2.34-1.14zM5.76 21.82v1.86c0 3.587 4.498 6.4 10.24 6.4s10.24-2.813 10.24-6.4v-1.86c-0.957 0.635-2.15 1.165-3.52 1.58-0.085 0.635-0.535 1.242-1.1 1.4-0.593 0.168-1.095-0.215-1.14-0.86-1.015 0.185-2.075 0.305-3.2 0.36 0 0.005 0 0.015 0 0.020 0 0.707-0.573 1.28-1.28 1.28s-1.28-0.573-1.28-1.28c0-0.005 0-0.015 0-0.020-1.125-0.055-2.185-0.175-3.2-0.36-0.045 0.645-0.545 1.027-1.14 0.86-0.565-0.157-1.015-0.762-1.1-1.4-1.367-0.415-2.563-0.945-3.52-1.58z"></path>
</symbol>
<symbol id="microwave" viewBox="0 0 32 32">
<path d="M29.27 5.253h-26.54c-1.505 0-2.73 1.225-2.73 2.73v14.376c0 1.328 0.953 2.437 2.212 2.68v0.085c0 0.896 0.729 1.624 1.624 1.624s1.624-0.729 1.624-1.624v-0.035h21.080v0.035c0 0.896 0.729 1.624 1.624 1.624s1.624-0.729 1.624-1.624v-0.085c1.258-0.243 2.212-1.352 2.212-2.68v-14.376c0-1.505-1.225-2.73-2.73-2.73zM1.037 22.359v-14.376c0-0.934 0.76-1.693 1.693-1.693h20.492v17.762h-20.492c-0.934 0-1.693-0.76-1.693-1.693zM4.423 25.123c0 0.324-0.264 0.587-0.587 0.587s-0.587-0.264-0.587-0.587v-0.035h1.175v0.035zM28.164 25.711c-0.324 0-0.587-0.264-0.587-0.587v-0.035h1.175v0.035c0 0.324-0.264 0.587-0.587 0.587zM30.963 22.359c0 0.934-0.76 1.693-1.693 1.693h-5.011v-17.762h5.011c0.934 0 1.693 0.76 1.693 1.693v14.376z"></path>
<path d="M27.611 17.97c-1.2 0-2.177 0.977-2.177 2.177s0.977 2.177 2.177 2.177 2.177-0.977 2.177-2.177-0.977-2.177-2.177-2.177zM27.611 19.006c0.123 0 0.241 0.020 0.351 0.056l-1.436 1.436c-0.036-0.111-0.056-0.229-0.056-0.351 0-0.629 0.512-1.14 1.14-1.14zM27.611 21.287c-0.123 0-0.241-0.020-0.351-0.056l1.436-1.436c0.036 0.111 0.056 0.229 0.056 0.351 0 0.629-0.512 1.14-1.14 1.14z"></path>
<path d="M27.611 12.441c-1.2 0-2.177 0.977-2.177 2.177s0.977 2.177 2.177 2.177 2.177-0.977 2.177-2.177-0.977-2.177-2.177-2.177zM28.752 14.618c0 0.123-0.020 0.241-0.056 0.351l-1.436-1.436c0.111-0.036 0.229-0.056 0.351-0.056 0.629 0 1.14 0.512 1.14 1.14zM26.471 14.618c0-0.123 0.020-0.241 0.056-0.351l1.436 1.436c-0.111 0.036-0.229 0.056-0.351 0.056-0.629 0-1.14-0.512-1.14-1.14z"></path>
<path d="M25.952 11.266h0.553c0.286 0 0.518-0.232 0.518-0.518s-0.232-0.518-0.518-0.518h-0.553c-0.286 0-0.518 0.232-0.518 0.518s0.232 0.518 0.518 0.518z"></path>
<path d="M29.27 10.229h-0.553c-0.286 0-0.518 0.232-0.518 0.518s0.232 0.518 0.518 0.518h0.553c0.286 0 0.518-0.232 0.518-0.518s-0.232-0.518-0.518-0.518z"></path>
<path d="M25.952 9.054h0.553c0.286 0 0.518-0.232 0.518-0.518s-0.232-0.518-0.518-0.518h-0.553c-0.286 0-0.518 0.232-0.518 0.518s0.232 0.518 0.518 0.518z"></path>
<path d="M29.27 8.017h-0.553c-0.286 0-0.518 0.232-0.518 0.518s0.232 0.518 0.518 0.518h0.553c0.286 0 0.518-0.232 0.518-0.518s-0.232-0.518-0.518-0.518z"></path>
<path d="M4.389 22.324h15.482c0.896 0 1.624-0.729 1.624-1.624v-11.058c0-0.896-0.729-1.624-1.624-1.624h-15.482c-0.896 0-1.624 0.729-1.624 1.624v11.058c0 0.896 0.729 1.624 1.624 1.624zM3.801 9.641c0-0.324 0.264-0.587 0.587-0.587h15.482c0.324 0 0.587 0.264 0.587 0.587v11.058c0 0.324-0.264 0.587-0.587 0.587h-15.482c-0.324 0-0.587-0.264-0.587-0.587v-11.058z"></path>
</symbol>
<symbol id="refrigerator" viewBox="0 0 32 32">
<path d="M9.43 7.214c0.797 0 1.446-0.649 1.446-1.447s-0.649-1.447-1.446-1.447c-0.798 0-1.447 0.649-1.447 1.447s0.649 1.447 1.447 1.447zM9.43 5.131c0.35 0 0.635 0.285 0.635 0.636s-0.285 0.636-0.635 0.636c-0.351 0-0.636-0.285-0.636-0.636s0.285-0.636 0.636-0.636z"></path>
<path d="M9.429 11.155c-0.878 0-1.566 0.523-1.566 1.191v8.304c0 0.668 0.688 1.191 1.566 1.191s1.566-0.523 1.566-1.191v-8.304c0-0.668-0.688-1.191-1.566-1.191zM10.185 20.65c0 0.151-0.301 0.381-0.755 0.381s-0.755-0.229-0.755-0.381v-8.304c0-0.152 0.301-0.38 0.755-0.38s0.755 0.229 0.755 0.38v8.304z"></path>
<path d="M24.977 0h-17.954c-1.384 0-2.51 1.126-2.51 2.51v24.715c0 1.384 1.126 2.51 2.51 2.51h0.309c-0.117 0.217-0.183 0.465-0.183 0.728 0 0.848 0.69 1.538 1.538 1.538s1.538-0.69 1.538-1.538c0-0.263-0.066-0.511-0.183-0.728h11.917c-0.117 0.217-0.183 0.465-0.183 0.728 0 0.848 0.69 1.538 1.538 1.538s1.538-0.69 1.538-1.538c0-0.263-0.066-0.511-0.183-0.728h0.309c1.384 0 2.51-1.126 2.51-2.51v-24.715c-0-1.384-1.126-2.51-2.51-2.51zM7.023 0.811h17.954c0.937 0 1.699 0.762 1.699 1.699v6.743h-21.352v-6.743c0-0.937 0.762-1.699 1.699-1.699zM9.414 30.462c0 0.401-0.326 0.728-0.727 0.728s-0.727-0.326-0.727-0.728 0.326-0.728 0.727-0.728c0.401 0 0.727 0.326 0.727 0.728zM24.040 30.462c0 0.401-0.326 0.728-0.727 0.728s-0.727-0.326-0.727-0.728 0.326-0.728 0.727-0.728c0.401 0 0.727 0.326 0.727 0.728zM24.977 28.923h-17.954c-0.937 0-1.699-0.762-1.699-1.699v-17.161h21.352v17.161c-0 0.937-0.762 1.699-1.699 1.699z"></path>
</symbol>

<symbol id="tv" viewBox="0 0 32 32">
<path d="M0 8c0 0 0-4 4-4h24c0 0 4 0 4 4v12c0 0 0 4-4 4h-8c0 1.333 0.167 2.333 0.5 3h1.5c0.265 0 0.52 0.105 0.707 0.293s0.293 0.442 0.293 0.707c0 0.265-0.105 0.52-0.293 0.707s-0.442 0.293-0.707 0.293h-12c-0.265 0-0.52-0.105-0.707-0.293s-0.293-0.442-0.293-0.707c0-0.265 0.105-0.52 0.293-0.707s0.442-0.293 0.707-0.293h1.5c0.333-0.667 0.5-1.667 0.5-3h-8c0 0-4 0-4-4v-12zM2.796 6.29c-0.22 0.153-0.395 0.361-0.508 0.604-0.168 0.353-0.266 0.735-0.288 1.126v11.98c0 0.65 0.156 1.004 0.29 1.204 0.14 0.208 0.341 0.377 0.604 0.508 0.338 0.162 0.703 0.259 1.076 0.286l0.050 0.002h23.98c0.65 0 1.004-0.156 1.204-0.29 0.22-0.153 0.395-0.361 0.508-0.604 0.162-0.338 0.259-0.703 0.286-1.076l0.002-0.050v-11.98c0-0.65-0.156-1.004-0.29-1.204-0.153-0.22-0.361-0.395-0.604-0.508-0.353-0.168-0.736-0.266-1.126-0.288h-23.98c-0.65 0-1.004 0.156-1.204 0.29z"></path>
</symbol>
<symbol id="water" viewBox="0 0 32 32">
<path d="M14.42 1.6c0.96-1.010 1.58-1.6 1.58-1.6 0.219 0.725 0.466 1.417 0.742 2.076 1.624 3.892 4.146 6.7 6.394 9.2 2.62 2.916 4.864 5.414 4.864 8.724 0 3.183-1.264 6.235-3.515 8.485s-5.303 3.515-8.485 3.515-6.235-1.264-8.485-3.515c-2.25-2.25-3.515-5.303-3.515-8.485 0-6.664 7.16-14.966 10.42-18.4zM15.246 3.642c-1.285 1.389-2.505 2.837-3.658 4.338-1.452 1.9-2.872 4.016-3.92 6.14-1.060 2.146-1.668 4.156-1.668 5.88 0 2.652 1.054 5.196 2.929 7.071s4.419 2.929 7.071 2.929 5.196-1.054 7.071-2.929c1.875-1.875 2.929-4.419 2.929-7.071 0-2.402-1.592-4.314-4.362-7.4l-0.060-0.064c-2.078-2.316-4.578-5.094-6.332-8.894z"></path>
<path d="M9.106 15.552c1.64-3.282 3.434-5.506 4.186-6.26l1.416 1.416c-0.58 0.58-2.256 2.622-3.814 5.74l-1.788-0.896z"></path>
</symbol>
<symbol id="wind" viewBox="0 0 32 32">
<path d="M25 4c-1.326 0-2.598 0.527-3.535 1.464s-1.465 2.209-1.465 3.536c0 0.265-0.105 0.52-0.293 0.707s-0.442 0.293-0.707 0.293c-0.265 0-0.52-0.105-0.707-0.293s-0.293-0.442-0.293-0.707c0-1.384 0.41-2.738 1.18-3.889s1.862-2.048 3.142-2.578c1.279-0.53 2.687-0.668 4.044-0.398s2.605 0.937 3.584 1.916c0.979 0.979 1.646 2.226 1.916 3.584s0.131 2.765-0.398 4.044c-0.53 1.279-1.427 2.372-2.578 3.142s-2.505 1.18-3.889 1.18h-24c-0.265 0-0.52-0.105-0.707-0.293s-0.293-0.442-0.293-0.707c0-0.265 0.105-0.52 0.293-0.707s0.442-0.293 0.707-0.293h24c1.326 0 2.598-0.527 3.535-1.464s1.465-2.209 1.465-3.536-0.527-2.598-1.465-3.536c-0.938-0.938-2.209-1.464-3.535-1.464zM11 6c-0.53 0-1.039 0.211-1.414 0.586s-0.586 0.884-0.586 1.414c0 0.265-0.105 0.52-0.293 0.707s-0.442 0.293-0.707 0.293c-0.265 0-0.52-0.105-0.707-0.293s-0.293-0.442-0.293-0.707c0-0.791 0.235-1.564 0.674-2.222s1.064-1.17 1.795-1.473c0.731-0.303 1.535-0.382 2.311-0.228s1.489 0.535 2.048 1.095 0.94 1.272 1.095 2.048c0.154 0.776 0.075 1.58-0.228 2.311s-0.815 1.356-1.473 1.795-1.431 0.674-2.222 0.674h-10c-0.265 0-0.52-0.105-0.707-0.293s-0.293-0.442-0.293-0.707c0-0.265 0.105-0.52 0.293-0.707s0.442-0.293 0.707-0.293h10c0.53 0 1.039-0.211 1.414-0.586s0.586-0.884 0.586-1.414c0-0.53-0.211-1.039-0.586-1.414s-0.884-0.586-1.414-0.586zM0 19c0-0.265 0.105-0.52 0.293-0.707s0.442-0.293 0.707-0.293h20.084c1.187 0 2.347 0.352 3.333 1.011s1.756 1.596 2.21 2.693c0.454 1.096 0.573 2.303 0.341 3.467s-0.803 2.233-1.642 3.072c-0.839 0.839-1.908 1.411-3.072 1.642s-2.37 0.113-3.467-0.341-2.033-1.223-2.693-2.21c-0.659-0.987-1.011-2.147-1.011-3.333 0-0.265 0.105-0.52 0.293-0.707s0.442-0.293 0.707-0.293c0.265 0 0.52 0.105 0.707 0.293s0.293 0.442 0.293 0.707c0 0.791 0.235 1.564 0.674 2.222s1.064 1.171 1.795 1.473c0.731 0.303 1.535 0.382 2.311 0.228s1.489-0.535 2.048-1.095 0.94-1.272 1.095-2.048c0.154-0.776 0.075-1.58-0.228-2.311s-0.815-1.356-1.473-1.795c-0.658-0.439-1.431-0.674-2.222-0.674h-20.084c-0.265 0-0.52-0.105-0.707-0.293s-0.293-0.442-0.293-0.707z"></path>
</symbol>
<symbol id="map" viewBox="0 0 32 32">
<path d="M31.634 0.226c0.115 0.094 0.207 0.212 0.27 0.346s0.096 0.28 0.096 0.428v28c-0 0.231-0.080 0.455-0.227 0.634s-0.351 0.301-0.577 0.346l-10 2c-0.129 0.026-0.263 0.026-0.392 0l-9.804-1.96-9.804 1.96c-0.145 0.029-0.295 0.025-0.438-0.010s-0.277-0.103-0.392-0.197c-0.114-0.094-0.207-0.212-0.27-0.345s-0.096-0.28-0.096-0.428v-28c0-0.231 0.080-0.455 0.227-0.634s0.351-0.301 0.577-0.346l10-2c0.129-0.026 0.263-0.026 0.392 0l9.804 1.96 9.804-1.96c0.145-0.029 0.295-0.026 0.438 0.010s0.277 0.103 0.392 0.196zM20 3.82l-8-1.6v25.96l8 1.6v-25.96zM22 29.78l8-1.6v-25.96l-8 1.6v25.96zM10 28.18v-25.96l-8 1.6v25.96l8-1.6z"></path>
</symbol>
</defs>
</svg>
